<svg xmlns="http://www.w3.org/2000/svg" xmlns:xlink="http://www.w3.org/1999/xlink" viewBox="0 0 24 30" version="1.1" x="0px" y="0px"><title>down-1</title><desc>Created with Sketch.</desc><g stroke="none" stroke-width="1" fill="none" fill-rule="evenodd"><g fill="#000000" fill-rule="nonzero"><path d="M1.95,12 C1.95,6.44953826 6.44953826,1.95 12,1.95 C17.5504617,1.95 22.05,6.44953826 22.05,12 C22.05,17.5504617 17.5504617,22.05 12,22.05 C6.44953826,22.05 1.95,17.5504617 1.95,12 Z M4.05,12 C4.05,16.3906638 7.60933624,19.95 12,19.95 C16.3906638,19.95 19.95,16.3906638 19.95,12 C19.95,7.60933624 16.3906638,4.05 12,4.05 C7.60933624,4.05 4.05,7.60933624 4.05,12 Z M12,12.55 L14.2075379,10.3075379 C14.6175884,9.89748737 15.2824116,9.89748737 15.6924621,10.3075379 C16.1025126,10.7175884 16.1025126,11.3824116 15.6924621,11.7924621 L12.6924621,14.7924621 C12.2824116,15.2025126 11.6175884,15.2025126 11.2075379,14.7924621 L8.20753788,11.7924621 C7.79748737,11.3824116 7.79748737,10.7175884 8.20753788,10.3075379 C8.61758839,9.89748737 9.28241161,9.89748737 9.69246212,10.3075379 L12,12.55 Z"/></g></g><text x="0" y="39" fill="#000000" font-size="5px" font-weight="bold" font-family="'Helvetica Neue', Helvetica, Arial-Unicode, Arial, Sans-serif">Created by Denis Klyuchnikov</text><text x="0" y="44" fill="#000000" font-size="5px" font-weight="bold" font-family="'Helvetica Neue', Helvetica, Arial-Unicode, Arial, Sans-serif">from the Noun Project</text></svg>