<?xml version="1.0" encoding="utf-8"?>
<!-- Generator: Adobe Illustrator 24.1.1, SVG Export Plug-In . SVG Version: 6.00 Build 0)  -->
<svg version="1.1" id="Layer_1" xmlns="http://www.w3.org/2000/svg" xmlns:xlink="http://www.w3.org/1999/xlink" x="0px" y="0px"
	 viewBox="0 0 512 512" style="enable-background:new 0 0 512 512;" xml:space="preserve">
<g>
	<path d="M0,256c0,141.4,114.6,256,256,256c141.4,0,256-114.6,256-256C512,114.6,397.4,0,256,0c-52.2,0-99.3,17.8-138.4,45.2
		c-39.2,27.5-70.7,64.5-93.5,104.2l37,21.2c19.9-34.9,47.7-67.2,80.9-90.4c33.2-23.2,71.5-37.4,113.9-37.5
		c59,0,112.2,23.8,150.9,62.5c38.6,38.7,62.5,91.9,62.5,150.9c0,59-23.8,112.2-62.5,150.8c-38.7,38.6-91.9,62.5-150.9,62.5
		c-59,0-112.2-23.8-150.9-62.5C66.5,368.2,42.7,315,42.7,256H0L0,256z M0,21.3V192h170.7v-42.7l-128,0v-128H0L0,21.3z M356.4,347.6
		l-79.1-79.1V128h-42.7v158.2l91.6,91.6L356.4,347.6L356.4,347.6z"/>
</g>
</svg>
